<svg xmlns="http://www.w3.org/2000/svg" width="320" height="320" viewBox="0 0 320 320" fill="none">
  <defs>
    <linearGradient id="g1" x1="0" y1="0" x2="1" y2="1">
      <stop offset="0" stop-color="#06b6d4" stop-opacity="0.25"/>
      <stop offset="1" stop-color="#06b6d4" stop-opacity="0"/>
    </linearGradient>
  </defs>
  <rect width="320" height="320" fill="#ffffff"/>
  <!-- Tiled motif suggesting grids, tiles and fixtures -->
  <g opacity="0.5">
    <g stroke="#e2e8f0" stroke-width="1">
      <path d="M40 0v320"/>
      <path d="M80 0v320"/>
      <path d="M120 0v320"/>
      <path d="M160 0v320"/>
      <path d="M200 0v320"/>
      <path d="M240 0v320"/>
      <path d="M280 0v320"/>
      <path d="M0 40h320"/>
      <path d="M0 80h320"/>
      <path d="M0 120h320"/>
      <path d="M0 160h320"/>
      <path d="M0 200h320"/>
      <path d="M0 240h320"/>
      <path d="M0 280h320"/>
    </g>
    <!-- Accent shapes reminiscent of tools and decor -->
    <circle cx="60" cy="60" r="10" fill="url(#g1)"/>
    <rect x="200" y="40" width="60" height="14" rx="7" fill="url(#g1)"/>
    <rect x="40" y="200" width="80" height="14" rx="7" fill="url(#g1)"/>
    <circle cx="260" cy="220" r="12" fill="url(#g1)"/>
    <rect x="160" y="120" width="100" height="14" rx="7" fill="url(#g1)"/>
  </g>
</svg>

